<svg xmlns="http://www.w3.org/2000/svg" xmlns:xlink="http://www.w3.org/1999/xlink"><symbol id="icon" viewBox="0 0 100 100"><defs xmlns="http://www.w3.org/2000/svg" style="fill: inherit;"><clipPath style="fill: inherit;"><rect x="6233" y="-2779" width="7583" height="5058" style="fill: inherit;"></rect></clipPath></defs><g xmlns="http://www.w3.org/2000/svg"><path class="fil0" d="M39 54c-9,-4 -13,-6 -13,-6 32,-12 48,-19 48,-19 -6,28 -9,42 -9,42 -13,-10 -19,-14 -19,-14 13,-13 19,-19 19,-19 -17,11 -26,16 -26,16zm-12 -49l46 0c12,0 22,10 22,22l0 46c0,12 -10,22 -22,22l-46 0c-12,0 -22,-10 -22,-22l0 -46c0,-12 10,-22 22,-22zm3 5l40 0c11,0 20,9 20,20l0 40c0,11 -9,20 -20,20l-40 0c-11,0 -20,-9 -20,-20l0 -40c0,-11 9,-20 20,-20z" style="fill: inherit;"></path></g></symbol></svg>