<svg width="980" height="228" viewBox="0 0 980 228" fill="none" xmlns="http://www.w3.org/2000/svg">
<path d="M67.2318 9.01083H0V151.998V219.286H67.2318H157.224V151.998H67.2318V9.01083Z" fill="white"/>
<path d="M902.502 9.01083L865.101 71.6262L827.701 9.01083H784.321H750.203H706.823L648.201 80.1541V9.01083H580.669V219.286H648.201V140.083L705.651 219.286H791.942L702.954 107.84L765.327 32.0243L831.335 133.307V219.286H898.868V133.307L980 9.01083H902.502Z" fill="white"/>
<path d="M556.995 91.0385C554.661 79.9613 550.705 69.2889 545.252 59.3657C539.757 49.551 532.92 40.5491 524.937 32.6195C511.575 19.6378 495.254 10.0963 477.38 4.8175C448.465 -3.54453 417.412 -0.131809 391.007 14.3099C364.603 28.7516 344.995 53.0478 336.469 81.8885L323.2 127.052C321.472 132.977 318.591 138.503 314.722 143.314C310.853 148.125 306.073 152.126 300.654 155.089L296.896 156.966C288.25 160.753 278.662 161.85 269.383 160.113C260.104 158.376 251.563 153.886 244.876 147.229C243.3 145.662 241.848 143.976 240.532 142.185C238.749 139.866 237.177 137.393 235.835 134.794C230.628 123.972 229.695 111.588 233.221 100.109C236.746 88.6296 244.471 78.8989 254.858 72.856C260.332 69.7509 266.376 67.7769 272.63 67.0514C278.883 66.326 285.219 66.864 291.26 68.6331L324.843 78.4869L336.586 18.0733V17.4867C328.184 12.1644 319.151 7.90851 309.696 4.8175H308.639C305.234 3.87904 301.828 3.05792 298.423 2.47139C293.379 1.54469 288.28 0.956901 283.157 0.711843H281.161C270.927 0.404342 260.698 1.46948 250.748 3.87902C242.896 5.84104 235.264 8.59239 227.967 12.0907L223.153 14.5541C201.788 26.2133 184.734 44.417 174.502 66.4855C164.271 88.5539 161.402 113.321 166.318 137.141C168.603 148.232 172.562 158.912 178.061 168.814C188.871 188.498 205.273 204.544 225.201 214.928C245.128 225.311 267.686 229.566 290.031 227.157C312.376 224.747 333.507 215.782 350.757 201.39C368.008 186.999 380.606 167.826 386.962 146.291L400.231 101.127C401.959 95.2024 404.84 89.6765 408.709 84.8656C412.577 80.0547 417.358 76.0531 422.777 73.0905C423.951 72.3866 425.243 71.9174 426.417 71.3309C434.523 67.7493 443.477 66.5316 452.245 67.8186C461.014 69.1056 469.239 72.8447 475.971 78.6039L478.907 81.3021C481.977 84.4214 484.623 87.9317 486.774 91.7423C491.341 99.9063 493.362 109.248 492.577 118.567C491.792 127.887 488.238 136.759 482.369 144.046C476.501 151.333 468.587 156.702 459.643 159.464C450.698 162.226 441.132 162.255 432.171 159.546L399.057 149.81L387.314 210.106V211.044C395.575 216.231 404.45 220.368 413.735 223.362C432.558 228.887 452.492 229.451 471.598 225C490.704 220.548 508.331 211.233 522.765 197.959C537.2 184.685 547.949 167.904 553.968 149.251C559.986 130.597 561.07 110.704 557.112 91.5078" fill="white"/>
</svg>
