<svg width="1320" height="921" viewBox="0 0 1320 921" fill="none" xmlns="http://www.w3.org/2000/svg">
<path opacity="0.1" fill-rule="evenodd" clip-rule="evenodd" d="M302.36 663.376C357.357 698.677 428.496 697.231 481.273 656.781C613.874 546.118 520.844 344.274 599.547 199.604C620.124 161.76 646.63 127.972 677.715 99.4747C750.49 32.6562 848.576 -5.22677 954.538 1.81515C1019.63 6.08512 1080.11 27.0144 1132.32 59.9779C1165.18 80.6928 1194.81 106.138 1220.23 135.544C1245.62 164.793 1266.8 198.005 1283.18 233.99C1294.16 258.23 1302.79 283.399 1308.92 309.82C1315.07 336.23 1318.5 362.94 1319.32 389.54C1320.5 429.061 1316.13 468.208 1306.24 505.654C1296.39 543.26 1281.02 579.164 1260.67 612.246C1228.34 664.854 1183.3 710.307 1126.75 742.844C1024.66 801.714 906.931 806.598 804.4 766.776C815.09 751.157 840.191 703.577 849.903 645.636C859.614 587.694 859.651 551.416 859.106 539.59C869.77 545.682 881.269 550.609 893.483 554.161C956.659 572.325 1025.36 548.349 1063.68 494.878C1107.61 432.46 1102.7 346.154 1053.16 288.938C1000.34 227.532 904.422 214.666 838.848 265.296C746.397 344.077 775.093 466.586 764.989 573.193C759.704 628.991 733.409 695.563 720.923 721.874C700.329 759.802 673.781 793.668 642.639 822.217C569.866 889.034 471.78 926.917 365.815 919.876C300.723 915.607 240.249 894.677 188.035 861.712C155.177 841.001 125.51 815.397 100.123 786.147C74.7363 756.9 53.5555 723.689 37.1782 687.701C26.2081 663.529 17.4463 637.773 11.3134 611.384C5.17971 584.991 1.75846 558.325 0.944909 531.793C-0.225548 492.274 4.13888 453.126 14.0256 415.679C23.9123 378.232 39.2482 342.171 59.6048 309.089C91.9315 256.479 136.978 211.027 193.516 178.489C298.47 117.97 412.785 113.861 517.292 157.37C511.15 170.846 499.683 179.482 486.575 225.859C473.672 271.5 464.777 359.212 465.435 384.229C449.123 374.195 431.644 368.205 413.162 363.706C328.72 346.83 248.836 404.661 229.976 485.696C215.014 552.28 243.907 626.804 302.36 663.376Z" fill="white"/>
</svg>
