<svg width="392" height="224" viewBox="0 0 392 224" fill="none" xmlns="http://www.w3.org/2000/svg">
<g opacity="0.3">
<mask id="path-1-inside-1_527_1079" fill="white">
<path d="M315 112C315 149.565 261.663 180 195.981 180C130.299 180 77 149.546 77 111.981C77 74.4155 130.299 44 195.981 44C261.663 44 314.961 74.4541 314.961 112"/>
</mask>
<path d="M314 112C314 130.268 301.021 146.999 279.625 159.219C258.257 171.422 228.68 179 195.981 179V181C228.963 181 258.896 173.361 280.617 160.955C302.31 148.566 316 131.297 316 112H314ZM195.981 179C163.282 179 133.714 171.417 112.356 159.209C90.9694 146.985 78 130.25 78 111.981H76C76 131.277 89.68 148.551 111.363 160.945C133.075 173.356 162.998 181 195.981 181V179ZM78 111.981C78 93.712 90.9692 76.9864 112.356 64.7717C133.714 52.5732 163.282 45 195.981 45V43C162.998 43 133.075 50.6345 111.364 63.035C89.6803 75.4194 76 92.6842 76 111.981H78ZM195.981 45C228.68 45 258.247 52.5828 279.606 64.7885C300.992 77.0105 313.961 93.7409 313.961 112H315.961C315.961 92.7132 302.281 75.4436 280.598 63.0521C258.886 50.6443 228.964 43 195.981 43V45Z" fill="#4500A4" mask="url(#path-1-inside-1_527_1079)"/>
</g>
<g opacity="0.2">
<mask id="path-3-inside-2_527_1079" fill="white">
<path d="M357 112C357 162.824 284.838 204 195.974 204C107.11 204 35 162.797 35 111.974C35 61.1503 107.11 20 195.974 20C284.838 20 356.948 61.2026 356.948 112"/>
</mask>
<path d="M356 112C356 136.898 338.315 159.628 309.315 176.19C280.343 192.737 240.264 203 195.974 203V205C240.548 205 280.981 194.675 310.307 177.927C339.604 161.195 358 137.926 358 112H356ZM195.974 203C151.684 203 111.618 192.73 82.6593 176.178C53.6723 159.609 36 136.872 36 111.974H34C34 137.899 52.3829 161.176 81.6669 177.914C110.979 194.669 151.4 205 195.974 205V203ZM36 111.974C36 87.076 53.672 64.3522 82.659 47.7965C111.618 31.2569 151.684 21 195.974 21V19C151.4 19 110.979 29.3183 81.6671 46.0598C52.3831 62.7851 34 86.0482 34 111.974H36ZM195.974 21C240.264 21 280.33 31.2699 309.289 47.8192C338.276 64.3848 355.948 87.1152 355.948 112H357.948C357.948 86.0874 339.565 62.8178 310.281 46.0828C280.969 29.3314 240.548 19 195.974 19V21Z" fill="#4500A4" mask="url(#path-3-inside-2_527_1079)"/>
</g>
<g opacity="0.1">
<mask id="path-5-inside-3_527_1079" fill="white">
<path d="M392 112C392 173.872 304.15 224 195.968 224C87.7864 224 0 173.84 0 111.968C0 50.0961 87.7864 0 195.968 0C304.15 0 391.936 50.1597 391.936 112"/>
</mask>
<path d="M391 112C391 142.422 369.393 170.152 334.056 190.334C298.748 210.499 249.917 223 195.968 223V225C250.201 225 299.386 212.437 335.048 192.07C370.682 171.72 393 143.45 393 112H391ZM195.968 223C142.019 223 93.2047 210.491 57.9122 190.318C22.5913 170.129 1 142.391 1 111.968H-1C-1 143.418 21.3019 171.696 56.9197 192.054C92.5658 212.429 141.735 225 195.968 225V223ZM1 111.968C1 81.546 22.5911 53.8236 57.9119 33.6504C93.2044 13.4933 142.019 1 195.968 1V-1C141.736 -1 92.5661 11.5547 56.92 31.9137C21.3022 52.2565 -1 80.5182 -1 111.968H1ZM195.968 1C249.917 1 298.732 13.5092 334.024 33.6781C369.345 53.8633 390.936 81.5937 390.936 112H392.936C392.936 80.566 370.634 52.2964 335.017 31.9417C299.371 11.5707 250.201 -1 195.968 -1V1Z" fill="#4500A4" mask="url(#path-5-inside-3_527_1079)"/>
</g>
<path d="M274.545 112C274.545 136.859 239.238 157 195.76 157C152.281 157 117 136.847 117 111.987C117 87.1279 152.281 67 195.76 67C239.238 67 274.519 87.1535 274.519 112" fill="#4500A4"/>
<path d="M243.624 112C243.624 112 222.205 140.069 195.76 140.069C169.315 140.069 147.921 112 147.921 112C147.921 112 169.34 83.9438 195.76 83.9438C222.179 83.9438 243.599 112 243.599 112" fill="white"/>
<path d="M217.78 112C217.783 116.35 216.496 120.603 214.081 124.221C211.667 127.839 208.235 130.66 204.217 132.327C200.2 133.995 195.778 134.434 191.512 133.589C187.245 132.743 183.325 130.652 180.246 127.579C177.168 124.506 175.07 120.59 174.217 116.324C173.365 112.059 173.796 107.637 175.456 103.617C177.117 99.5963 179.932 96.1587 183.546 93.7382C187.16 91.3177 191.41 90.0231 195.76 90.0181C201.591 90.0181 207.184 92.3336 211.308 96.4557C215.433 100.578 217.751 106.169 217.755 112" fill="#00CFFA"/>
<path d="M195.76 123.995C193.387 123.995 191.068 123.291 189.096 121.973C187.123 120.655 185.586 118.782 184.678 116.59C183.77 114.398 183.532 111.986 183.995 109.66C184.458 107.333 185.6 105.196 187.278 103.518C188.955 101.841 191.093 100.698 193.419 100.235C195.746 99.7725 198.158 100.01 200.35 100.918C202.542 101.826 204.415 103.363 205.733 105.336C207.051 107.308 207.754 109.627 207.754 112C207.754 115.181 206.491 118.232 204.241 120.481C201.992 122.731 198.941 123.995 195.76 123.995Z" fill="#4D00AB"/>
</svg>
