<svg width="97" height="97" viewBox="0 0 97 97" fill="none" xmlns="http://www.w3.org/2000/svg">
<g clip-path="url(#clip0_572_553)">
<ellipse cx="48.5" cy="48.5" rx="48.5" ry="48.5" transform="rotate(90 48.5 48.5)" fill="#FF6AA5"/>
<path d="M51.8636 74.6852C63.5897 73.2037 72.9203 64.1423 74.7442 52.4646L76.0544 53.7859C77.2004 54.9401 79.0657 54.9484 80.2199 53.8024C81.3742 52.6565 81.3825 50.7912 80.2365 49.6369L74.0138 43.3645C72.8678 42.2103 71.0039 42.202 69.8483 43.348L63.5745 49.5707C62.4313 50.7277 62.4437 52.593 63.6007 53.7362C64.7412 54.8614 66.572 54.8697 67.7221 53.7527L68.6954 52.7863C66.2585 63.9159 55.2615 70.9629 44.1318 68.526C39.5217 67.5167 35.3963 64.9569 32.4458 61.2733C31.4407 59.9948 29.5892 59.7725 28.3093 60.779C27.0294 61.7855 26.8085 63.6356 27.815 64.9155C27.8274 64.9307 27.8385 64.9459 27.8509 64.9611C33.6 72.1834 42.7083 75.8725 51.8636 74.6852Z" fill="white"/>
<path d="M33.5158 47.2061C34.6715 46.0601 34.6784 44.1962 33.5324 43.0406C32.3864 41.885 30.5225 41.8781 29.3669 43.024L28.3935 43.9905C30.8304 32.8609 41.8275 25.8139 52.9571 28.2508C57.57 29.2601 61.6968 31.8226 64.6473 35.5076C65.6635 36.7779 67.5164 36.985 68.7866 35.9702C70.0568 34.954 70.2639 33.1011 69.2491 31.8309C69.2477 31.8281 69.245 31.8254 69.2436 31.824C60.0842 20.3934 43.3918 18.5543 31.9626 27.7137C26.7989 31.853 23.3679 37.7719 22.3448 44.3108L21.0359 42.9909C19.8899 41.8366 18.0247 41.8284 16.8704 42.9743C15.7162 44.1203 15.7079 45.9856 16.8538 47.1398L23.0765 53.4122C24.2225 54.5665 26.0864 54.5748 27.242 53.4288L33.5158 47.2061Z" fill="white"/>
</g>
<defs>
<clipPath id="clip0_572_553">
<rect width="97" height="97" fill="white"/>
</clipPath>
</defs>
</svg>
