<svg width="96" height="96" viewBox="0 0 96 96" fill="none" xmlns="http://www.w3.org/2000/svg">
<path d="M71.5932 0H24.4068C10.9273 0 0 10.9273 0 24.4068V71.5932C0 85.0727 10.9273 96 24.4068 96H71.5932C85.0727 96 96 85.0727 96 71.5932V24.4068C96 10.9273 85.0727 0 71.5932 0Z" fill="#FF6AA5"/>
<path d="M86.3685 43.4996C85.9156 41.3161 85.1474 39.2297 84.088 37.2888C83.0286 35.348 81.6862 33.5769 80.093 32.0162C77.5618 29.5335 74.3998 27.625 70.7607 26.5575C64.8411 24.8188 58.7678 25.6437 53.7458 28.3932C48.7238 31.1347 44.7531 35.7928 43.0144 41.7205L40.4105 50.608C39.7473 52.8805 38.2108 54.9022 35.9626 56.1314L35.2429 56.4872C31.7089 58.0399 27.6493 57.207 24.9968 54.5706C24.6895 54.2633 24.4064 53.9398 24.1395 53.584C23.7999 53.1312 23.4926 52.654 23.2257 52.1284C21.0665 47.7857 22.7324 42.3432 26.9538 39.9495C29.2262 38.6636 31.814 38.4372 34.1269 39.1165L40.7258 41.0493L43.063 29.1615L43.0872 29.0402C41.4456 28.0131 39.6826 27.1559 37.8145 26.5494C37.7418 26.5251 37.6771 26.5171 37.6043 26.4928C36.9331 26.2987 36.2619 26.137 35.5826 26.0157C34.5879 25.8297 33.5851 25.7164 32.5904 25.6679C32.461 25.6679 32.3316 25.6517 32.1941 25.6437C30.1562 25.579 28.1426 25.8054 26.2017 26.2744C24.6571 26.6545 23.161 27.1883 21.7377 27.8757C21.4142 28.0293 21.0989 28.1991 20.7835 28.369C15.7615 31.1104 11.7908 35.7685 10.0521 41.6962C8.98463 45.3353 8.88759 49.023 9.60732 52.5004C10.0602 54.6838 10.8285 56.7703 11.8878 58.7111C12.9472 60.652 14.2897 62.423 15.8828 63.9838C18.414 66.4665 21.576 68.375 25.2151 69.4425C31.1347 71.1812 37.208 70.3563 42.23 67.6068C47.252 64.8653 51.2227 60.2072 52.9614 54.2795L55.5654 45.392C56.2366 43.1195 57.765 41.0978 60.0132 39.8686C60.2477 39.7392 60.4822 39.6421 60.7248 39.5208C64.0324 38.0571 67.809 38.696 70.4615 40.9522C70.6637 41.1221 70.8578 41.3 71.0438 41.4941C71.6341 42.0925 72.1598 42.7799 72.5803 43.5562C75.0306 48.0445 73.3809 53.673 68.8926 56.1233C66.6526 57.3525 64.1214 57.5466 61.8489 56.8835L55.3389 54.975L53.0018 66.8466L52.9695 67.0326C54.5869 68.0354 56.3255 68.8522 58.1694 69.4506C64.089 71.1893 70.1623 70.3644 75.1843 67.6149C80.2063 64.8734 84.1769 60.2153 85.9156 54.2876C86.9831 50.6485 87.0802 46.9608 86.3604 43.4834L86.3685 43.4996Z" fill="white"/>
</svg>
