<svg width="96" height="96" viewBox="0 0 96 96" fill="none" xmlns="http://www.w3.org/2000/svg">
<g clip-path="url(#clip0_527_1073)">
<path d="M0 46.08C0 24.3576 0 13.4965 6.74826 6.74826C13.4965 0 24.3576 0 46.08 0H49.92C71.6424 0 82.5034 0 89.2518 6.74826C96 13.4965 96 24.3576 96 46.08V49.92C96 71.6424 96 82.5034 89.2518 89.2518C82.5034 96 71.6424 96 49.92 96H46.08C24.3576 96 13.4965 96 6.74826 89.2518C0 82.5034 0 71.6424 0 49.92V46.08Z" fill="url(#paint0_linear_527_1073)"/>
<path fill-rule="evenodd" clip-rule="evenodd" d="M28.352 55.2287C30.5917 57.5292 34.0127 58.2511 36.9887 56.9026C44.5663 53.0823 42.3589 42.3907 47.735 36.344C49.1408 34.7622 50.7853 33.4403 52.5901 32.4225C56.8167 30.0348 61.9327 29.313 66.926 30.8281C69.9942 31.7562 72.6559 33.43 74.7881 35.5877C76.1305 36.9441 77.2656 38.491 78.1553 40.1806C79.0453 41.8624 79.6894 43.6869 80.073 45.5907C80.3294 46.8727 80.4622 48.1728 80.4615 49.505C80.4622 50.837 80.3294 52.1531 80.073 53.4349C79.6894 55.3388 79.0453 57.1633 78.1553 58.8449C77.2656 60.5347 76.1305 62.0816 74.7881 63.4381C72.6559 65.5957 69.9942 67.2695 66.926 68.1975C61.3846 69.8789 55.6955 68.8036 51.231 65.7582C51.9164 65.1298 53.6471 63.1325 54.7564 60.4682C55.8657 57.804 56.271 56.0687 56.3765 55.4968C56.8191 55.9068 57.3147 56.2704 57.8598 56.5762C60.6815 58.1477 64.2364 57.7645 66.6652 55.6322C69.462 53.1343 70.1874 48.9505 68.4525 45.6621C66.6077 42.1369 62.1597 40.4547 58.458 42.1479C53.1566 44.8892 53.1674 51.0697 51.498 56.058C50.6243 58.6689 48.6253 61.5616 47.735 62.6816C46.3274 64.2674 44.6801 65.5925 42.8719 66.6121C38.6456 68.9998 33.5295 69.7217 28.536 68.2065C25.468 67.2785 22.8064 65.6047 20.6739 63.4469C19.3316 62.0906 18.1965 60.5358 17.3067 58.854C16.417 57.1724 15.7726 55.3479 15.3891 53.444C15.1329 52.1655 15 50.8357 15 49.505C15 48.174 15.1329 46.8601 15.3891 45.5817C15.7726 43.6778 16.417 41.8533 17.3067 40.1716C18.1965 38.4899 19.3316 36.9351 20.6739 35.5786C22.8064 33.421 25.468 31.7472 28.536 30.8191C34.2326 29.0906 39.7498 30.165 44.2679 33.4087C43.824 33.9852 43.1791 34.2709 42.0358 36.344C40.9106 38.3843 39.5091 42.482 39.2623 43.6862C38.5932 43.0248 37.8233 42.5438 36.9887 42.123C33.1348 40.3767 28.668 42.2554 26.8639 45.9228C25.4071 48.9421 25.9611 52.829 28.352 55.2287Z" fill="white"/>
</g>
<defs>
<linearGradient id="paint0_linear_527_1073" x1="48" y1="0" x2="48" y2="96" gradientUnits="userSpaceOnUse">
<stop stop-color="#4C00AA"/>
<stop offset="1" stop-color="#AD00FF"/>
</linearGradient>
<clipPath id="clip0_527_1073">
<rect width="96" height="96" rx="12" fill="white"/>
</clipPath>
</defs>
</svg>
