<svg width="68" height="68" viewBox="0 0 68 68" fill="none" xmlns="http://www.w3.org/2000/svg">
<path d="M62.7737 50.5119C59.4606 56.2503 54.5202 60.8774 48.5771 63.8078C42.6341 66.7382 35.9555 67.8403 29.3861 66.9748C22.8166 66.1093 16.6514 63.315 11.6702 58.9453C6.68899 54.5757 3.1155 48.8269 1.40172 42.4262C-0.312057 36.0254 -0.089154 29.2602 2.04226 22.9861C4.17367 16.7121 8.11784 11.211 13.3759 7.17872C18.634 3.14643 24.9698 0.764028 31.5819 0.332844C38.1941 -0.0983397 44.7856 1.44108 50.5229 4.75636C58.2137 9.20054 63.8246 16.5172 66.122 25.0975C68.4193 33.6779 67.215 42.8193 62.7737 50.5119" fill="#47E5C7"/>
<path d="M24.4071 32.5801C21.6091 37.4264 17.3643 40.2359 14.9356 38.8337C12.507 37.4315 12.8049 32.3726 15.6156 27.5044C18.4263 22.6361 22.6475 19.8422 25.0871 21.2508C27.5268 22.6593 27.2115 27.7228 24.4071 32.5801Z" fill="#400D70"/>
<path d="M38.3512 41.9794C35.5532 46.8257 42.2686 41.3106 44.6862 42.7065C47.1039 44.1023 47.569 49.2354 49.6166 47.1355C51.8507 44.8648 50.346 38.4867 47.9284 37.0909C45.5107 35.6951 41.1365 37.1551 38.3385 42.0014" fill="#400D70"/>
<path d="M56.6584 33.6183C56.2839 32.2571 55.6074 30.9978 54.6791 29.9342C53.7508 28.8706 52.5946 28.03 51.2965 27.4749M20.5071 17.23C21.8727 16.869 23.3025 16.8229 24.6886 17.0951C26.0746 17.3674 27.3807 17.951 28.5083 18.8018M33.0572 45.9709C31.9215 47.938 27.9777 50.6575 25.0106 48.9445C24.0634 48.3976 23.3722 47.4968 23.0891 46.4403C22.806 45.3838 22.9542 44.2581 23.5011 43.3109" stroke="#400D70" stroke-width="1.96" stroke-miterlimit="10"/>
</svg>
